# xmcd CD database file
#
# Track frame offsets:
#	225
#	15068
#	32140
#	46664
#	61971
#	82617
#	93821
#	112250
#	128348
#	146755
#
# Disc length: 2193 seconds
#
# Revision: 0
# Processed by: cddbd v1.5.1PL0 Copyright (c) Steve Scherf et al.
# Submitted via: CDex 1.50
#
DISCID=6b088e0a
DTITLE=Cigar Store Indians - Built of Stone
DYEAR=2004
DGENRE=Country
TTITLE0=Hit Me
TTITLE1=Guinevere
TTITLE2=Other Side of the Pillow
TTITLE3=Ballerina Dressed In Black
TTITLE4=Copy Cat Season
TTITLE5=In A Second Flat
TTITLE6=Weight of the World
TTITLE7=Next To You
TTITLE8=Blue Mountain Girl
TTITLE9=Nothing Else Matters
EXTD=YEAR: 2004
EXTT0=
EXTT1=
EXTT2=
EXTT3=
EXTT4=
EXTT5=
EXTT6=
EXTT7=
EXTT8=
EXTT9=
PLAYORDER=
